<?xml version="1.0" encoding="UTF-8"?>
<svg width="40px" height="40px" viewBox="0 0 40 40" version="1.1" xmlns="http://www.w3.org/2000/svg" xmlns:xlink="http://www.w3.org/1999/xlink">
    <title>Icons/Chroma/Light/Blocks</title>
    <g id="Icons/Chroma/Light/Blocks" stroke="none" stroke-width="1" fill="none" fill-rule="evenodd">
        <g id="Icons/~Source/Blocks">
            <path d="M14.6762327,3.36816246 L23.6762327,7.52200862 C25.0928344,8.17582478 26,9.59364235 26,11.1538462 L26,22.035187 C26,23.5953908 25.0928344,25.0132084 23.6762327,25.6670246 L14.6762327,29.8208707 C13.6126523,30.311754 12.3873477,30.311754 11.3237673,29.8208707 L2.32376729,25.6670246 C0.907165607,25.0132084 -6.97108561e-16,23.5953908 0,22.035187 L0,11.1538462 C1.8407546e-16,10.5815159 0.122072369,10.0283457 0.346584227,9.52502013 L12.9996593,15.364945 L12.9996593,13.822945 L1.145935,8.35113778 C1.47930179,8.01154156 1.87609663,7.72862584 2.32376729,7.52200862 L11.3237673,3.36816246 C12.3873477,2.87727918 13.6126523,2.87727918 14.6762327,3.36816246 Z" id="Background" fill="#80E9FF"></path>
            <path d="M39,17.1538462 L39,28.035187 C39,29.5953908 38.0928344,31.0132084 36.6762327,31.6670246 L27.6762327,35.8208707 C26.6126523,36.311754 25.3873477,36.311754 24.3237673,35.8208707 L15.3237673,31.6670246 C13.9071656,31.0132084 13,29.5953908 13,28.035187 L13,17.1538462 C13,16.5815159 13.1220724,16.0283457 13.3465842,15.5250201 L26,21.3654762 L38.6534158,15.5250201 C38.8779276,16.0283457 39,16.5815159 39,17.1538462 Z M27.6762327,9.36816246 L36.6762327,13.5220086 C37.1239034,13.7286258 37.5206982,14.0115416 37.854065,14.3511378 L26,19.823557 L14.1449566,14.3521348 C14.4785253,14.0120953 14.8756586,13.728828 15.3237673,13.5220086 L24.3237673,9.36816246 C25.3873477,8.87727918 26.6126523,8.87727918 27.6762327,9.36816246 Z" id="Foreground" fill="#7A73FF"></path>
            <path d="M13.3465842,15.5250201 L26,21.3654762 L26,21.3644981 L26,22.035187 C26,23.5953908 25.0928344,25.0132084 23.6762327,25.6670246 L14.6762327,29.8208707 C14.331389,29.9800294 13.9695441,30.0875841 13.6017227,30.1435351 C13.2156223,29.5226436 13,28.795837 13,28.035187 L13,17.1538462 C13,16.5815159 13.1220724,16.0283457 13.3465842,15.5250201 Z M26,11.1538462 L26,19.823557 L14.1449566,14.3521348 C14.4785253,14.0120953 14.8756586,13.728828 15.3237673,13.5220086 L24.3237673,9.36816246 C24.668611,9.20900383 25.0304559,9.10144905 25.3982773,9.04549813 C25.7844411,9.66660326 26,10.3933079 26,11.1538462 Z" id="Intersection" fill="#0048E5"></path>
        </g>
    </g>
</svg>