<?xml version="1.0" encoding="UTF-8"?>
<svg width="40px" height="40px" viewBox="0 0 40 40" version="1.1" xmlns="http://www.w3.org/2000/svg" xmlns:xlink="http://www.w3.org/1999/xlink">
    <title>Icons/Chroma/Light/Gears</title>
    <g id="Icons/Chroma/Light/Gears" stroke="none" stroke-width="1" fill="none" fill-rule="evenodd">
        <g id="Icons/~Source/Gears">
            <path d="M13.5,0 L14.6293547,3.13207705 C14.8458212,3.16754956 15.059949,3.20997277 15.2715013,3.25910998 L17.5129449,0.798224361 L18.4368244,1.18090779 L18.2816085,4.50696042 C18.4667903,4.62236433 18.647923,4.74365621 18.8247448,4.87057417 L21.8388348,3.45405845 L22.5459415,4.16116524 L21.1294258,7.17525516 C21.2563438,7.35207702 21.3776357,7.53320975 21.4930396,7.71839146 L24.8190922,7.56317561 L25.2017756,8.48705515 L22.74089,10.7284987 C22.7900272,10.940051 22.8324504,11.1541788 22.8679229,11.3706453 L26,12.5 L26,13.5 L22.8679229,14.6293547 C22.8273861,14.8767256 22.7777722,15.1210423 22.7194345,15.3619517 L25.2017756,17.5129449 L24.8190922,18.4368244 L21.5418572,18.2024564 C21.3957901,18.4417702 21.2399486,18.674466 21.0748878,18.899989 L22.5459415,21.8388348 L21.8388348,22.5459415 L18.899989,21.0748878 C18.674466,21.2399486 18.4417702,21.3957901 18.2024564,21.5418572 L18.4368244,24.8190922 L17.5129449,25.2017756 L15.3619517,22.7194345 C15.0913092,22.7849723 14.8163663,22.8395 14.5376238,22.8825167 L13.5,26 L12.5,26 L11.4623762,22.8825167 C11.1836337,22.8395 10.9086908,22.7849723 10.6380483,22.7194345 L8.48705515,25.2017756 L7.56317561,24.8190922 L7.79754357,21.5418572 C7.5582298,21.3957901 7.32553398,21.2399486 7.10001098,21.0748878 L4.16116524,22.5459415 L3.45405845,21.8388348 L4.92511224,18.899989 C4.76005136,18.674466 4.6042099,18.4417702 4.45814276,18.2024564 L1.18090779,18.4368244 L0.798224361,17.5129449 L3.28056546,15.3619517 C3.2150277,15.0913092 3.16050002,14.8163663 3.11748327,14.5376238 L0,13.5 L0,12.5 L3.11748327,11.4623762 C3.15571628,11.2146317 3.20304241,10.9698886 3.25910998,10.7284987 L0.798224361,8.48705515 L1.18090779,7.56317561 L4.50696042,7.71839146 C4.62236433,7.53320975 4.74365621,7.35207702 4.87057417,7.17525516 L3.45405845,4.16116524 L4.16116524,3.45405845 L7.17525516,4.87057417 C7.35207702,4.74365621 7.53320975,4.62236433 7.71839146,4.50696042 L7.56317561,1.18090779 L8.48705515,0.798224361 L10.7284987,3.25910998 C10.7284987,3.25910998 11.1541788,3.16754956 11.3706453,3.13207705 L12.5,0 L13.5,0 Z M13,11 C11.8954305,11 11,11.8954305 11,13 C11,14.1045695 11.8954305,15 13,15 C14.1045695,15 15,14.1045695 15,13 C15,11.8954305 14.1045695,11 13,11 Z" id="Background" fill="#80E9FF"></path>
            <path d="M25.804761,10 L26.6823371,13.1156021 C26.9609478,13.1542204 27.2365134,13.2022917 27.5086955,13.2594796 L27.5086955,13.2594796 L29.4046844,10.6309987 L30.9171402,11.1782226 L30.6699096,14.4033322 C30.9172209,14.5343677 31.1594045,14.6737084 31.3960836,14.8209796 L31.3960836,14.8209796 L34.0828598,12.9951111 L35.3158251,14.0235556 L33.9728408,16.9723718 C34.1595757,17.1784917 34.3392262,17.3910792 34.511411,17.6097552 L34.511411,17.6097552 L37.6655082,16.8071902 L38.4702692,18.1928098 L36.1960663,20.5047863 C36.3006986,20.7620592 36.3966175,21.0237616 36.4834594,21.2895321 L36.4834594,21.2895321 L39.7205095,21.6074432 L40,23.1831115 L37.0644767,24.5838859 C37.0692118,24.722011 37.0692118,25.2779891 37.0644767,25.4161142 L37.0644767,25.4161142 L40,26.8168885 L39.7205095,28.3925568 L36.4834594,28.7104679 C36.3966175,28.9762384 36.3006986,29.2379408 36.1960663,29.4952137 L36.1960663,29.4952137 L38.4702692,31.8071902 L37.6655082,33.1928098 L34.511411,32.3902448 C34.3392262,32.6089208 34.1595757,32.8215083 33.9728408,33.0276282 L33.9728408,33.0276282 L35.3158251,35.9764444 L34.0828598,37.0048889 L31.3960836,35.1790204 C31.1594045,35.3262916 30.9172209,35.4656323 30.6699096,35.5966678 L30.6699096,35.5966678 L30.9171402,38.8217774 L29.4046844,39.3690013 L27.5086955,36.7405204 C27.2365134,36.7977083 26.9609478,36.8457796 26.6823371,36.8843979 L26.6823371,36.8843979 L25.804761,40 L24.195239,40 L23.3176629,36.8843979 C23.0390522,36.8457796 22.7634866,36.7977083 22.4913045,36.7405204 L22.4913045,36.7405204 L20.5953156,39.3690013 L19.0828598,38.8217774 L19.3300904,35.5966678 C19.0827791,35.4656323 18.8405955,35.3262916 18.6039164,35.1790204 L18.6039164,35.1790204 L15.9171402,37.0048889 L14.6841749,35.9764444 L16.0271592,33.0276282 C15.8404243,32.8215083 15.6607738,32.6089208 15.488589,32.3902448 L15.488589,32.3902448 L12.3344918,33.1928098 L11.5297308,31.8071902 L13.8039337,29.4952137 C13.6993014,29.2379408 13.6033825,28.9762384 13.5165406,28.7104679 L13.5165406,28.7104679 L10.2794905,28.3925568 L10,26.8168885 L12.9355233,25.4161141 C12.9307882,25.277989 12.9307882,24.7220109 12.9355233,24.5838858 L12.9355233,24.5838858 L10,23.1831115 L10.2794905,21.6074432 L13.5165406,21.2895321 C13.6033825,21.0237616 13.6993014,20.7620592 13.8039337,20.5047863 L13.8039337,20.5047863 L11.5297308,18.1928098 L12.3344918,16.8071902 L15.488589,17.6097552 C15.6607738,17.3910792 15.8404243,17.1784917 16.0271592,16.9723718 L16.0271592,16.9723718 L14.6841749,14.0235556 L15.9171402,12.9951111 L18.6039164,14.8209796 C18.8405955,14.6737084 19.0827791,14.5343677 19.3300904,14.4033322 L19.3300904,14.4033322 L19.0828598,11.1782226 L20.5953156,10.6309987 L22.4913045,13.2594796 C22.7634866,13.2022917 23.0390522,13.1542204 23.3176629,13.1156021 L23.3176629,13.1156021 L24.195239,10 L25.804761,10 Z M25,22 C23.3332601,22 21.9821004,23.3431458 21.9821004,25 C21.9821004,26.6568542 23.3332601,28 25,28 C26.6667399,28 28.0178996,26.6568542 28.0178996,25 C28.0178996,23.3431458 26.6667399,22 25,22 Z" id="Foreground" fill="#7A73FF"></path>
            <path d="M20.5953156,10.6309987 L22.4913045,13.2594796 L22.902073,13.1805772 L22.902073,13.1805772 L23.3176629,13.1156021 L23.722,11.6779987 L26,12.5 L26,13.5 L22.8679229,14.6293547 C22.8273861,14.8767256 22.7777722,15.1210423 22.7194345,15.3619517 L25.2017756,17.5129449 L24.8190922,18.4368244 L21.5418572,18.2024564 C21.3957901,18.4417702 21.2399486,18.674466 21.0748878,18.899989 L22.5459415,21.8388348 L21.8388348,22.5459415 L18.899989,21.0748878 C18.674466,21.2399486 18.4417702,21.3957901 18.2024564,21.5418572 L18.4368244,24.8190922 L17.5129449,25.2017756 L15.3619517,22.7194345 C15.0913092,22.7849723 14.8163663,22.8395 14.5376238,22.8825167 L13.5,26 L12.5,26 L12.392,25.6749987 L12.9355233,25.4161141 C12.9314647,25.2977212 12.9308849,24.8723342 12.9337839,24.6662287 L12.9355233,24.5838858 L11.857,24.0689987 L11.4623762,22.8825167 C11.1836337,22.8395 10.9086908,22.7849723 10.6380483,22.7194345 L10.167,23.2629987 L10,23.1831115 L10.2794905,21.6074432 L13.5165406,21.2895321 L13.6535657,20.8939726 L13.6535657,20.8939726 L13.8039337,20.5047863 L11.5297308,18.1928098 L12.3344918,16.8071902 L15.488589,17.6097552 L15.7524178,17.286355 L15.7524178,17.286355 L16.0271592,16.9723718 L14.6995584,14.0547949 C14.7171129,14.0265699 14.7339837,13.9978756 14.750148,13.9687351 L15.9171402,12.9951111 L18.6039164,14.8209796 L18.9630163,14.6060675 L18.9630163,14.6060675 L19.3300904,14.4033322 L19.0828598,11.1782226 L20.5953156,10.6309987 Z" id="Intersection" fill="#0048E5"></path>
        </g>
    </g>
</svg>