<?xml version="1.0" encoding="utf-8"?>
<!-- Generator: Adobe Illustrator 26.0.2, SVG Export Plug-In . SVG Version: 6.00 Build 0)  -->
<svg version="1.1" id="Layer_1" xmlns="http://www.w3.org/2000/svg" xmlns:xlink="http://www.w3.org/1999/xlink" x="0px" y="0px"
	 viewBox="0 0 749.4 154" style="enable-background:new 0 0 749.4 154;" xml:space="preserve">
<style type="text/css">
	.st0{fill-rule:evenodd;clip-rule:evenodd;fill:#635BFF;}
	.st1{fill:#635BFF;}
</style>
<path class="st0" d="M201.7,20.8l-26,5.5v-21l26-5.4V20.8z M255.7,32.5c-10.1,0-16.7,4.7-20.3,8l-1.3-6.4h-22.8v119.7l25.9-5.4
	l0.1-29.1c3.7,2.7,9.2,6.5,18.3,6.5c18.5,0,35.4-14.8,35.4-47.3C290.8,48.7,273.8,32.5,255.7,32.5z M249.4,103.2
	c-6.1,0-9.7-2.2-12.2-4.8l-0.1-38.1c2.7-3,6.4-5,12.3-5c9.4,0,15.9,10.5,15.9,23.9C265.4,92.9,259,103.2,249.4,103.2z M372.5,79.5
	c0-26.3-12.8-47-37.4-47c-24.6,0-39.5,20.7-39.5,46.8c0,30.9,17.6,46.5,42.8,46.5c12.3,0,21.6-2.8,28.7-6.7V98.6
	c-7,3.5-15.1,5.6-25.3,5.6c-10,0-18.9-3.5-20.1-15.6h50.6c0-0.6,0-1.9,0.1-3.3v0C372.4,83.3,372.5,80.9,372.5,79.5z M321.4,69.7
	c0-11.6,7.1-16.4,13.7-16.4c6.3,0,13,4.8,13,16.4H321.4z M201.7,34.2h-26v89.9h26V34.2z M146.2,34.2l1.7,7.6
	c6.1-11.1,18.2-8.8,21.5-7.6v23.6c-3.2-1.1-13.6-2.6-19.7,5.3v60.9h-25.9V34.2H146.2z M96.1,11.9l-25.2,5.3l-0.1,82.3
	c0,15.2,11.5,26.4,26.8,26.4c8.5,0,14.7-1.5,18.1-3.4v-20.8c-3.3,1.3-19.7,6.1-19.7-9.1V56.1h19.7V34.2H96L96.1,11.9z M35,54.7
	c-5.5,0-8.8,1.5-8.8,5.5c0,4.4,5.7,6.3,12.8,8.7c11.5,3.9,26.7,9,26.8,28c0,18.4-14.8,29-36.3,29c-8.9,0-18.6-1.7-28.2-5.9V95.6
	c8.7,4.7,19.7,8.2,28.2,8.2c5.8,0,9.9-1.5,9.9-6.3c0-4.8-6.2-7.1-13.6-9.7C14.3,83.8,0,78.6,0,61.5c0-18.2,14-29.1,35-29.1
	c8.6,0,17.1,1.3,25.7,4.7v24.1C52.8,57.1,42.8,54.7,35,54.7z"/>
<path class="st1" d="M450.4,34.2l-33.6,89.9h18.3l7.1-19.3h37.1l7.1,19.3h18.7l-33.7-89.9H450.4z M460.6,54.6l12.8,34.6H448
	L460.6,54.6z"/>
<path class="st1" d="M535.4,91h18.4c20.7,0,33.6-9.9,33.6-28.4c0-18.7-12.9-28.4-33.6-28.4H517v89.9h18.4V91z M535.4,75.4V49.8h17.4
	c10.8,0,16.3,4.6,16.3,12.8c0,8-5.5,12.8-16.3,12.8H535.4z"/>
<path class="st1" d="M619,91h18.4c20.7,0,33.6-9.9,33.6-28.4c0-18.7-12.9-28.4-33.6-28.4h-36.8v89.9H619V91z M619,75.4V49.8h17.4
	c10.8,0,16.3,4.6,16.3,12.8c0,8-5.5,12.8-16.3,12.8H619z"/>
<path class="st1" d="M676,107.7c7.3,10.9,23,17.8,38.2,17.8c19.2,0,35.2-10.9,35.2-29.1c0-19.7-17.5-23.3-31.8-26.4
	c-11.8-2.6-18.3-4-18.3-11c0-6.5,6-10.8,14.8-10.8c10,0,17,5,22.3,12.4l12.1-11.9c-6.3-9-18.4-15.9-33.9-15.9
	c-18.7,0-33.4,10.8-33.4,27.9c0,17.8,14.5,22,27.9,25.2c13.5,3,22,4.1,22,12.4c0,7.6-6.9,11.8-16.3,11.8c-9.9,0-19.5-5.3-26.2-14.7
	L676,107.7z"/>
</svg>
