<svg width="100%" height="100%" viewBox="0 0 128 128" version="1.1" xmlns="http://www.w3.org/2000/svg" xmlns:xlink="http://www.w3.org/1999/xlink" xml:space="preserve" xmlns:serif="http://www.serif.com/" style="fill-rule:evenodd;clip-rule:evenodd;stroke-linejoin:round;stroke-miterlimit:1.5;">
    <g transform="matrix(1,0,0,1,13.6697,0)">
        <path d="M15.011,0C23.295,0 30.021,6.726 30.021,15.011C30.021,23.295 23.295,30.021 15.011,30.021C6.726,30.021 0,23.295 0,15.011C0,6.726 6.726,0 15.011,0ZM15.011,8C18.88,8 22.021,11.141 22.021,15.011C22.021,18.88 18.88,22.021 15.011,22.021C11.141,22.021 8,18.88 8,15.011C8,11.141 11.141,8 15.011,8Z"/>
    </g>
    <g transform="matrix(1,0,0,0.867151,-0.0488504,1.99413)">
        <path d="M97.765,115.133L97.762,35.073C97.762,35.073 98.463,15.011 79.02,15.011L59.577,15.011" style="fill:none;stroke:rgb(37,133,51);stroke-width:8.55px;"/>
    </g>
    <g transform="matrix(1.29442,0,0,1.64688,-13.5135,-10.6746)">
        <path d="M59.577,24.711L59.577,6.482L46.723,15.011L59.577,24.711Z" style="fill:rgb(37,133,51);"/>
    </g>
    <g transform="matrix(1,0,0,0.764891,-11.4247,5.36358)">
        <path d="M40.105,22.813L40.105,128" style="fill:none;stroke:black;stroke-width:8.99px;"/>
    </g>
    <g transform="matrix(1,0,0,1,82.706,97.979)">
        <path d="M15.011,0C23.295,0 30.021,6.726 30.021,15.011C30.021,23.295 23.295,30.021 15.011,30.021C6.726,30.021 0,23.295 0,15.011C0,6.726 6.726,0 15.011,0ZM15.011,8C18.88,8 22.021,11.141 22.021,15.011C22.021,18.88 18.88,22.021 15.011,22.021C11.141,22.021 8,18.88 8,15.011C8,11.141 11.141,8 15.011,8Z" style="fill:rgb(37,133,51);"/>
    </g>
    <g transform="matrix(1,0,0,1,13.6697,97.979)">
        <path d="M15.011,0C23.295,0 30.021,6.726 30.021,15.011C30.021,23.295 23.295,30.021 15.011,30.021C6.726,30.021 0,23.295 0,15.011C0,6.726 6.726,0 15.011,0ZM15.011,8C18.88,8 22.021,11.141 22.021,15.011C22.021,18.88 18.88,22.021 15.011,22.021C11.141,22.021 8,18.88 8,15.011C8,11.141 11.141,8 15.011,8Z"/>
    </g>
    <g transform="matrix(0.803533,0,0,0.744568,72.8946,16.6479)">
        <path d="M11.289,77.391C11.289,77.391 15.391,92.082 32.6,92.082C49.809,92.082 51.567,80.432 51.567,76.766C51.567,73.099 49.707,61.494 32.6,61.494C15.493,61.494 12.739,52.796 12.655,46.686C12.572,40.701 14.421,29.738 32.6,30.021C50.408,30.299 51.425,39.192 51.425,39.192" style="fill:none;stroke:rgb(37,133,51);stroke-width:10.33px;stroke-linecap:round;"/>
    </g>
</svg>
