<svg width="24" height="24" viewBox="0 0 24 24" fill="none" xmlns="http://www.w3.org/2000/svg">
<path d="M0 4C0 1.79086 1.79086 0 4 0H20C22.2091 0 24 1.79086 24 4V20C24 22.2091 22.2091 24 20 24H4C1.79086 24 0 22.2091 0 20V4Z" fill="#063667"/>
<path d="M20.8771 20.5384C20.2959 21.1203 19.3338 21.1203 18.7526 20.5384C18.472 20.2575 18.0311 20.2575 17.7505 20.5384C17.4699 20.8194 17.0691 20.9799 16.6883 20.9799C16.588 20.9799 16.4878 20.9799 16.4077 20.9599H16.3877C16.1071 20.8997 15.8465 20.7592 15.6462 20.5786L15.6262 20.5586C15.3456 20.2776 14.9047 20.2776 14.6241 20.5586L14.6041 20.5786C14.0229 21.1405 13.1009 21.1405 12.5198 20.5786L12.4998 20.5586C12.2192 20.2776 11.7783 20.2776 11.4977 20.5586L11.4777 20.5786C11.1971 20.8595 10.8363 21.0001 10.4355 21.0001C10.0346 21.0001 9.67382 20.8395 9.39323 20.5786L9.37324 20.5586C9.11264 20.2977 8.63171 20.2977 8.37113 20.5586L8.35113 20.5786C8.15066 20.7592 7.93018 20.8795 7.66974 20.9599H7.62961H7.60962H7.58963C7.48939 20.9799 7.38915 20.9799 7.30905 20.9799C6.90824 20.9799 6.5274 20.8194 6.24681 20.5384C5.98622 20.2775 5.50529 20.2775 5.2447 20.5384C4.66355 21.1203 3.70142 21.1203 3.12027 20.5384C2.95991 20.3779 2.95991 20.1371 3.12027 19.9766C3.28062 19.816 3.52107 19.816 3.68145 19.9766C3.96203 20.2575 4.40297 20.2575 4.68356 19.9766C4.96414 19.6956 5.34495 19.5351 5.74579 19.5351C5.84603 19.5351 5.94627 19.5551 6.04637 19.5753C6.32695 19.6355 6.58754 19.776 6.80801 19.9766C6.94837 20.1171 7.12871 20.1773 7.30906 20.1773C7.34918 20.1773 7.4093 20.1773 7.44942 20.1573C7.48955 20.1573 7.50954 20.1373 7.54966 20.1373C7.56965 20.1373 7.58979 20.1172 7.58979 20.1172C7.58979 20.1172 7.60978 20.1172 7.60978 20.0972C6.10604 18.7325 5.22419 16.786 5.16406 14.6788L11.5776 11.1069V17.8494C11.5776 18.0701 11.7579 18.2507 11.9784 18.2507C12.1988 18.2507 12.3792 18.0701 12.3792 17.8494V11.1069L18.7927 14.6788C18.7326 16.7859 17.8707 18.7524 16.3675 20.1169C16.3875 20.1169 16.4076 20.137 16.4276 20.137C16.4476 20.137 16.4476 20.137 16.4677 20.157C16.4877 20.157 16.5279 20.177 16.5478 20.177C16.7883 20.2172 17.0088 20.157 17.1893 19.9763C17.4097 19.7555 17.6703 19.6151 17.9509 19.575C18.432 19.4746 18.953 19.6151 19.3338 19.9763C19.6144 20.2572 20.0554 20.2572 20.336 19.9763C20.4963 19.8157 20.7368 19.8157 20.8971 19.9763C21.0375 20.137 21.0374 20.3779 20.8771 20.5384Z" fill="#39C9E9"/>
<path d="M11.798 10.0637C11.8179 10.0637 11.8381 10.0437 11.8581 10.0437H11.8781C11.9182 10.0437 11.9382 10.0237 11.9783 10.0237C12.0184 10.0237 12.0384 10.0237 12.0785 10.0437H12.0985C12.1185 10.0437 12.1387 10.0637 12.1586 10.0637H12.1786L16.5879 12.5119L16.5881 8.6189H7.36865V12.5319L11.798 10.0637Z" fill="#39C9E9"/>
<path d="M12.3791 4.80594H11.5775V3.4013C11.5775 3.18056 11.7578 3 11.9783 3C12.1987 3 12.3791 3.18057 12.3791 3.4013V4.80594ZM14.9846 5.60869H8.97195V7.81611H14.9846V5.60869Z" fill="#39C9E9"/>
</svg>
