<svg width="24" height="24" viewBox="0 0 24 24" fill="none" xmlns="http://www.w3.org/2000/svg">
<path d="M21.8634 21.4873C21.2177 22.1338 20.1486 22.1338 19.5029 21.4873C19.1912 21.1751 18.7012 21.1751 18.3895 21.4873C18.0777 21.7994 17.6324 21.9778 17.2092 21.9778C17.0978 21.9778 16.9865 21.9778 16.8974 21.9555H16.8752C16.5635 21.8887 16.2739 21.7325 16.0513 21.5319L16.0291 21.5096C15.7173 21.1975 15.2274 21.1975 14.9157 21.5096L14.8934 21.5319C14.2477 22.1562 13.2233 22.1562 12.5775 21.5319L12.5553 21.5096C12.2436 21.1975 11.7536 21.1975 11.4419 21.5096L11.4197 21.5319C11.1079 21.844 10.707 22.0002 10.2616 22.0002C9.81628 22.0002 9.41535 21.8218 9.10359 21.5319L9.08137 21.5096C8.79183 21.2197 8.25746 21.2197 7.96792 21.5096L7.94571 21.5319C7.72295 21.7325 7.47797 21.8663 7.1886 21.9555H7.14401H7.1218H7.09959C6.98821 21.9778 6.87683 21.9778 6.78783 21.9778C6.34249 21.9778 5.91933 21.7994 5.60757 21.4873C5.31802 21.1974 4.78365 21.1974 4.49411 21.4873C3.84839 22.1338 2.77935 22.1338 2.13363 21.4873C1.95546 21.3089 1.95546 21.0414 2.13363 20.863C2.3118 20.6846 2.57897 20.6846 2.75716 20.863C3.06892 21.1751 3.55885 21.1751 3.87062 20.863C4.18238 20.5508 4.6055 20.3724 5.05088 20.3724C5.16226 20.3724 5.27363 20.3947 5.38485 20.4171C5.69661 20.484 5.98616 20.6401 6.23112 20.863C6.38708 21.0191 6.58746 21.086 6.78784 21.086C6.83243 21.086 6.89922 21.086 6.9438 21.0638C6.98839 21.0638 7.0106 21.0415 7.05518 21.0415C7.07739 21.0415 7.09976 21.0193 7.09976 21.0193C7.09976 21.0193 7.12198 21.0193 7.12198 20.997C5.45116 19.4806 4.47132 17.3179 4.40451 14.9766L11.5306 11.0078V18.4994C11.5306 18.7447 11.731 18.9453 11.976 18.9453C12.2209 18.9453 12.4213 18.7447 12.4213 18.4994V11.0078L19.5474 14.9766C19.4806 17.3178 18.523 19.5028 16.8528 21.0189C16.875 21.0189 16.8974 21.0412 16.9196 21.0412C16.9418 21.0412 16.9418 21.0412 16.9642 21.0634C16.9864 21.0634 17.0309 21.0857 17.0532 21.0857C17.3203 21.1303 17.5653 21.0634 17.7659 20.8626C18.0108 20.6174 18.3003 20.4614 18.6121 20.4167C19.1466 20.3052 19.7256 20.4614 20.1487 20.8626C20.4605 21.1748 20.9504 21.1748 21.2622 20.8626C21.4403 20.6842 21.7075 20.6842 21.8857 20.8626C22.0417 21.0412 22.0416 21.3089 21.8634 21.4873Z" fill="white"/>
<path d="M11.7755 9.84851C11.7977 9.84851 11.8201 9.82627 11.8423 9.82627H11.8645C11.9091 9.82627 11.9313 9.80403 11.9759 9.80403C12.0205 9.80403 12.0427 9.80403 12.0873 9.82627H12.1095C12.1317 9.82627 12.1541 9.84851 12.1763 9.84851H12.1985L17.0977 12.5687L17.0978 8.24316H6.85406V12.591L11.7755 9.84851Z" fill="white"/>
<path d="M12.4212 4.0066H11.5305V2.44589C11.5305 2.20062 11.7309 2 11.9759 2C12.2208 2 12.4212 2.20063 12.4212 2.44589V4.0066ZM15.3162 4.89854H8.6355V7.35124H15.3162V4.89854Z" fill="white"/>
</svg>
