<svg id="Layer_1" data-name="Layer 1" xmlns="http://www.w3.org/2000/svg" viewBox="0 0 300.93 74.83"><defs><style>.cls-1{fill:#1b1d1d;}</style></defs><path class="cls-1" d="M107.66,62.87a30.13,30.13,0,0,1-6.1-.62,16.71,16.71,0,0,1-5.41-2.12,12.38,12.38,0,0,1-3.94-4,13.17,13.17,0,0,1-1.43-4.31A2.24,2.24,0,0,1,93,49.24h5.47a2.8,2.8,0,0,1,2.71,2.34c0,.07.13.27.37.68A5,5,0,0,0,103,53.87a6.49,6.49,0,0,0,2.12.94,10.34,10.34,0,0,0,2.57.32,10.1,10.1,0,0,0,2-.22,6.49,6.49,0,0,0,1.84-.68,3.89,3.89,0,0,0,1.3-1.15,2.9,2.9,0,0,0,.48-1.73c0-.42,0-1.69-2.43-2.61C109.05,48,104.8,47,104.75,47l-3.58-.87s-1-.25-2.36-.68a15.14,15.14,0,0,1-3.73-1.78,9.13,9.13,0,0,1-2.71-2.86,8.24,8.24,0,0,1-1.05-4.25,11.17,11.17,0,0,1,1.43-5.91A10.38,10.38,0,0,1,96.48,27a16.08,16.08,0,0,1,5.09-1.84,30.57,30.57,0,0,1,5.69-.52,28.42,28.42,0,0,1,5.65.55,15.31,15.31,0,0,1,5,1.92,11.79,11.79,0,0,1,3.71,3.63A12,12,0,0,1,123,34.58a2.16,2.16,0,0,1-2.18,2.62h-5.47a3.22,3.22,0,0,1-3-2.28,2.79,2.79,0,0,0-1.27-1.56,9,9,0,0,0-4.16-.9,14.62,14.62,0,0,0-1.68.1,5.45,5.45,0,0,0-1.53.38,3,3,0,0,0-1.07.8,1.94,1.94,0,0,0-.38,1.28A2,2,0,0,0,103,36.6a6.75,6.75,0,0,0,2.24,1.19,29.3,29.3,0,0,0,3.41.89c1.27.26,2.62.56,4,.89a39.44,39.44,0,0,1,4.16,1.17,14.26,14.26,0,0,1,3.74,1.88,9.46,9.46,0,0,1,2.7,3,8.86,8.86,0,0,1,1,4.44A11.36,11.36,0,0,1,119,60.19a15.71,15.71,0,0,1-5.35,2.1A30.82,30.82,0,0,1,107.66,62.87Z"/><path class="cls-1" d="M153.77,62a2.52,2.52,0,0,1-2.52-2.52V43.36c0-1-.07-2.61-.16-3.6A12.81,12.81,0,0,0,150,35.42c-.77-1.22-2.16-1.81-4.23-1.81-2.41,0-4.09.67-5.14,2.06-.86,1.15-1.34,4.37-1.45,5.51s-.17,2.61-.17,3.6V59.47A2.52,2.52,0,0,1,136.48,62h-5.94A2.53,2.53,0,0,1,128,59.47V14.77a2.53,2.53,0,0,1,2.53-2.52h5.94A2.52,2.52,0,0,1,139,14.77V29.43a.76.76,0,0,0,.11-.14,13,13,0,0,1,3.78-3.19,13.42,13.42,0,0,1,5.85-1.45,17.18,17.18,0,0,1,6.61,1.1,10.12,10.12,0,0,1,4.17,3.13,11.94,11.94,0,0,1,2.12,4.81,30.09,30.09,0,0,1,.51,4.21c.05,1,.09,2.68.09,3.7V59.47A2.53,2.53,0,0,1,159.72,62Z"/><path class="cls-1" d="M170.25,62a2.53,2.53,0,0,1-2.53-2.52V28.12a2.54,2.54,0,0,1,2.53-2.53h5.94a2.53,2.53,0,0,1,2.53,2.53V59.47A2.52,2.52,0,0,1,176.19,62Zm0-40.44A2.53,2.53,0,0,1,167.72,19V14.77a2.53,2.53,0,0,1,2.53-2.52h5.94a2.52,2.52,0,0,1,2.53,2.52V19a2.52,2.52,0,0,1-2.53,2.52Z"/><path class="cls-1" d="M186.72,74.26a2.53,2.53,0,0,1-2.52-2.53V28.12a2.53,2.53,0,0,1,2.52-2.53h5.47a2.53,2.53,0,0,1,2.53,2.53V29l.07-.09A12.07,12.07,0,0,1,198.34,26a14.48,14.48,0,0,1,6.26-1.35A16,16,0,0,1,212,26.28a15.34,15.34,0,0,1,5.17,4.33,18,18,0,0,1,3,6.23,27.3,27.3,0,0,1,1,7.33,24.75,24.75,0,0,1-1,7,17.92,17.92,0,0,1-3,6,14.62,14.62,0,0,1-12.1,5.75,14.38,14.38,0,0,1-6.29-1.38,13,13,0,0,1-3.51-2.69l-.15-.17v13.1a2.53,2.53,0,0,1-2.52,2.53Zm15.78-41a6.81,6.81,0,0,0-3.6.88,7.37,7.37,0,0,0-2.36,2.32,10.1,10.1,0,0,0-1.29,3.36,20.89,20.89,0,0,0-.39,4.07,18.87,18.87,0,0,0,.42,4,9.85,9.85,0,0,0,1.33,3.33A6.91,6.91,0,0,0,199,53.46a8,8,0,0,0,7.2,0,7.13,7.13,0,0,0,2.34-2.26,9.65,9.65,0,0,0,1.3-3.32,20.45,20.45,0,0,0,.39-4,19,19,0,0,0-.42-4,10.51,10.51,0,0,0-1.37-3.4A7.48,7.48,0,0,0,206,34.15,6.65,6.65,0,0,0,202.5,33.27Z"/><path class="cls-1" d="M226.42,74.26a2.54,2.54,0,0,1-2.53-2.53V28.12a2.54,2.54,0,0,1,2.53-2.53h5.47a2.54,2.54,0,0,1,2.53,2.53V29l.07-.09A11.77,11.77,0,0,1,238,26a14.45,14.45,0,0,1,6.26-1.35,16,16,0,0,1,7.43,1.63,15.44,15.44,0,0,1,5.17,4.33,18,18,0,0,1,3,6.23,27.3,27.3,0,0,1,1,7.33,24.74,24.74,0,0,1-1,7,18.13,18.13,0,0,1-3,6,15,15,0,0,1-5,4.19,15.2,15.2,0,0,1-7,1.56,14.42,14.42,0,0,1-6.3-1.38A12.65,12.65,0,0,1,235,58.8l-.15-.17v13.1a2.53,2.53,0,0,1-2.53,2.53Zm15.77-41a6.83,6.83,0,0,0-3.6.88,7.34,7.34,0,0,0-2.35,2.32,9.94,9.94,0,0,0-1.3,3.36,20.89,20.89,0,0,0-.39,4.07,18.24,18.24,0,0,0,.43,4,9.85,9.85,0,0,0,1.33,3.33,6.91,6.91,0,0,0,2.37,2.25,7.06,7.06,0,0,0,9.54-2.25,9.44,9.44,0,0,0,1.29-3.32,20.45,20.45,0,0,0,.4-4,19,19,0,0,0-.43-4,10.28,10.28,0,0,0-1.36-3.4,7.48,7.48,0,0,0-2.39-2.36A6.71,6.71,0,0,0,242.19,33.27Z"/><path class="cls-1" d="M282.08,62.87a21.12,21.12,0,0,1-7.7-1.33,16.71,16.71,0,0,1-5.93-3.85,17,17,0,0,1-3.81-6,21.88,21.88,0,0,1-1.33-7.83A22.18,22.18,0,0,1,264.64,36,16.71,16.71,0,0,1,274.37,26a20.8,20.8,0,0,1,7.71-1.37A21.24,21.24,0,0,1,289.82,26a16.68,16.68,0,0,1,9.77,10,22.18,22.18,0,0,1,1.34,7.87,21.88,21.88,0,0,1-1.34,7.83,17.19,17.19,0,0,1-3.81,6,16.61,16.61,0,0,1-6,3.85A21.36,21.36,0,0,1,282.08,62.87Zm0-29.6a6.69,6.69,0,0,0-6.09,3.2,9.73,9.73,0,0,0-1.29,3.36,19.74,19.74,0,0,0-.4,4,19.21,19.21,0,0,0,.4,4,10.06,10.06,0,0,0,1.3,3.36,6.69,6.69,0,0,0,2.36,2.31,7.29,7.29,0,0,0,3.72.86,7.52,7.52,0,0,0,3.76-.86,6.73,6.73,0,0,0,2.4-2.31,10.35,10.35,0,0,0,1.29-3.36,19.21,19.21,0,0,0,.4-4,19.74,19.74,0,0,0-.4-4,9.89,9.89,0,0,0-1.29-3.36,7,7,0,0,0-2.41-2.31A7.3,7.3,0,0,0,282.08,33.27Z"/><path class="cls-1" d="M79.68,23a15.92,15.92,0,0,0-4.93-6.46,16.65,16.65,0,0,0-7.93-3.26,17,17,0,0,0-5,.08,21.27,21.27,0,0,0-5,1.53c-.8.34-1.58.69-2.37,1a16.16,16.16,0,0,1-7.95,2.27,19.73,19.73,0,0,1-4.33-.46,21.4,21.4,0,0,1-2.22-.6,9.86,9.86,0,0,0-2.16-.44,27.65,27.65,0,0,0-5.06.26l-4,.44,0,0h-.12A20.65,20.65,0,0,0,25,14.53,2.32,2.32,0,0,0,23.84,14c-1.26,0-1.56,1.49-1.63,2.46A11.89,11.89,0,0,0,22.53,20,5.46,5.46,0,0,0,23,21.35,11.91,11.91,0,0,0,23.51,23a6.35,6.35,0,0,0-1,1.78,3.29,3.29,0,0,1-.3.63,17.94,17.94,0,0,1-1.34,1.68c-1.58,1.83-3.26,3.57-4.94,5.3-.79.81-7.58,3.05-11.5,4.3A33,33,0,0,1,59.53,12.88a17.15,17.15,0,0,1,2.09-.46,18.68,18.68,0,0,1,3-.24H65a37.41,37.41,0,1,0,9.48,30.06l-.6.37a23.53,23.53,0,0,1-2.87,1.3l-.94.39-.42.19A33.06,33.06,0,0,1,38.8,70.42c3.27-4.89,9.86-14.49,11.79-15.81q4-2.72,8-5.26c2.5-1.54,5-3,7.65-4.35,1.13-.57,2.28-1.12,3.46-1.61a36,36,0,0,0,3.7-1.65,14.92,14.92,0,0,0,5.28-5,14.19,14.19,0,0,0,2.17-6.57A15.76,15.76,0,0,0,79.68,23ZM43,27.75a3.48,3.48,0,0,1-3.83.14,3.28,3.28,0,0,1-1.54-3.36,3,3,0,0,1,.12-.43c-.15.39-.27.72,0-.06s.17-.45,0-.06a3.28,3.28,0,0,1,3.09-2A3.46,3.46,0,0,1,44,24.2,3.11,3.11,0,0,1,43,27.75Z"/></svg>